<svg aria-hidden="true" style="position: absolute; width: 0; height: 0; overflow: hidden;" version="1.1" xmlns="http://www.w3.org/2000/svg" xmlns:xlink="http://www.w3.org/1999/xlink">
<defs>
<symbol id="icon-linkedin" viewBox="0 0 32 32">
<path fill="#4a86c5" style="fill: var(--color1, #4a86c5)" d="M32 16c0 8.837-7.163 16-16 16s-16-7.163-16-16c0-8.837 7.163-16 16-16s16 7.163 16 16z"></path>
<path fill="#3d80b2" style="fill: var(--color2, #3d80b2)" d="M27.313 4.685c6.248 6.249 6.249 16.38 0 22.629s-16.38 6.248-22.628 0l22.628-22.629z"></path>
<path fill="#4a86c5" style="fill: var(--color1, #4a86c5)" d="M31.238 20.882c0.059-0.183 0.112-0.368 0.164-0.554-0.052 0.186-0.107 0.371-0.164 0.554z"></path>
<path fill="#377ca5" style="fill: var(--color3, #377ca5)" d="M31.404 20.325v0l-0.001 0.004z"></path>
<path fill="#377ca5" style="fill: var(--color3, #377ca5)" d="M31.404 20.325l-8.668-8.668-1.972 1.972-1.371-1.371-1.144 1.144-6.7-6.701-0.416-0.158-2.571 2.571 3.104 3.104-3.038 3.038 2.967 2.967-3.244 3.244 10.318 10.307c5.941-0.998 10.77-5.266 12.571-10.892 0.057-0.183 0.112-0.368 0.164-0.554 0-0.001 0.001-0.003 0.001-0.004z"></path>
<path d="M24.21 15.561v5.934h-3.44v-5.536c0-1.391-0.498-2.34-1.743-2.34-0.951 0-1.516 0.64-1.765 1.258-0.091 0.221-0.114 0.529-0.114 0.839v5.779h-3.441c0 0 0.046-9.377 0-10.348h3.44v1.467c-0.006 0.011-0.016 0.023-0.022 0.034h0.022v-0.034c0.457-0.704 1.274-1.71 3.101-1.71 2.264 0 3.961 1.479 3.961 4.658zM10.108 6.158c-1.177 0-1.947 0.772-1.947 1.787 0 0.994 0.748 1.789 1.902 1.789h0.023c1.2 0 1.946-0.795 1.946-1.789-0.023-1.015-0.746-1.787-1.924-1.787zM8.365 21.494h3.44v-10.348h-3.44v10.348z"></path>
</symbol>
<symbol id="icon-google-plus" viewBox="0 0 32 32">
<path d="M13.856 18.651c-0.104-0.069-0.21-0.144-0.322-0.219-0.324-0.099-0.668-0.151-1.021-0.155h-0.043c-1.62 0-3.041 0.98-3.041 2.099 0 1.218 1.217 2.17 2.771 2.17 2.049 0 3.087-0.708 3.087-2.1 0-0.131-0.015-0.268-0.048-0.405-0.139-0.54-0.634-0.877-1.384-1.39z"></path>
<path  d="M12.709 14.406c0.001 0 0.001 0 0.001 0 0.387 0 0.714-0.153 0.967-0.443 0.397-0.452 0.573-1.195 0.469-1.983-0.184-1.409-1.191-2.582-2.242-2.612l-0.042-0.001c-0.372 0-0.704 0.153-0.956 0.442-0.391 0.447-0.557 1.154-0.454 1.941 0.184 1.408 1.213 2.624 2.242 2.656h0.015z"></path>
<path d="M16 0c-8.822 0-16 7.178-16 16s7.178 16 16 16c8.822 0 16-7.178 16-16s-7.177-16-16-16zM14.155 23.791c-0.605 0.175-1.259 0.263-1.945 0.263-0.764 0-1.499-0.088-2.184-0.261-1.326-0.334-2.305-0.969-2.763-1.786-0.197-0.353-0.297-0.73-0.297-1.119 0-0.401 0.096-0.809 0.285-1.212 0.726-1.548 2.641-2.59 4.762-2.59 0.021 0 0.041 0 0.061 0-0.172-0.304-0.255-0.618-0.255-0.949 0-0.164 0.022-0.332 0.066-0.503-2.225-0.050-3.889-1.68-3.889-3.828 0-1.516 1.212-2.994 2.946-3.591 0.519-0.179 1.048-0.271 1.568-0.271h4.758c0.162 0 0.305 0.105 0.356 0.259s-0.005 0.322-0.136 0.417l-1.064 0.77c-0.064 0.045-0.14 0.070-0.22 0.070h-0.381c0.492 0.59 0.78 1.431 0.78 2.375 0 1.042-0.527 2.028-1.487 2.778-0.741 0.577-0.77 0.737-0.77 1.066 0.009 0.181 0.525 0.772 1.095 1.175 1.327 0.938 1.821 1.859 1.821 3.396-0.001 1.605-1.219 2.992-3.105 3.54zM24.9 15.631c0 0.206-0.168 0.374-0.374 0.374h-2.704v2.705c0 0.206-0.168 0.374-0.372 0.374h-0.77c-0.208 0-0.375-0.168-0.375-0.374v-2.705h-2.702c-0.206 0-0.374-0.166-0.374-0.374v-0.769c0-0.206 0.168-0.375 0.374-0.375h2.702v-2.702c0-0.207 0.168-0.374 0.375-0.374h0.77c0.204 0 0.372 0.167 0.372 0.374v2.702h2.703c0.206 0 0.374 0.168 0.374 0.374v0.77z"></path>
</symbol>
<symbol id="icon-twitter" viewBox="0 0 32 32">
<path fill="#65a2d9" style="fill: var(--color5, #65a2d9)" d="M32 16c0 8.837-7.163 16-16 16s-16-7.163-16-16c0-8.837 7.163-16 16-16s16 7.163 16 16z"></path>
<path fill="#3a7ca5" style="fill: var(--color6, #3a7ca5)" d="M24.563 8.708c-1.669 1.448-3.328 2.717-4.685 4.491-3.336 4.023-7.413 9.731-12.962 8.88l9.913 9.9c8.404-0.43 15.094-7.343 15.168-15.836l-7.435-7.435z"></path>
<path fill="#fff" style="fill: var(--color7, #fff)" d="M24.867 10.154c-0.407 0.181-0.829 0.323-1.263 0.426 0.478-0.454 0.837-1.022 1.039-1.655 0.058-0.181-0.139-0.337-0.302-0.241-0.603 0.358-1.253 0.626-1.931 0.798-0.039 0.010-0.080 0.015-0.121 0.015-0.124 0-0.244-0.046-0.338-0.129-0.721-0.636-1.649-0.986-2.613-0.986-0.417 0-0.838 0.065-1.251 0.193-1.28 0.397-2.268 1.453-2.579 2.756-0.116 0.489-0.148 0.978-0.094 1.454 0.006 0.055-0.020 0.093-0.036 0.111-0.028 0.031-0.068 0.049-0.109 0.049-0.005 0-0.009-0-0.014-0.001-2.803-0.261-5.33-1.611-7.117-3.802-0.091-0.112-0.266-0.098-0.338 0.026-0.35 0.6-0.535 1.287-0.535 1.985 0 1.070 0.43 2.079 1.177 2.815-0.314-0.075-0.618-0.192-0.901-0.349-0.137-0.076-0.305 0.022-0.307 0.178-0.019 1.59 0.912 3.005 2.307 3.643-0.028 0.001-0.056 0.001-0.084 0.001-0.221 0-0.445-0.021-0.665-0.063-0.154-0.029-0.283 0.117-0.236 0.266 0.453 1.414 1.67 2.456 3.126 2.692-1.209 0.811-2.616 1.239-4.081 1.239l-0.457-0c-0.141 0-0.26 0.092-0.296 0.228-0.035 0.134 0.030 0.276 0.15 0.346 1.651 0.961 3.534 1.468 5.446 1.468 1.674 0 3.24-0.332 4.654-0.987 1.297-0.601 2.442-1.459 3.405-2.552 0.897-1.018 1.599-2.193 2.085-3.492 0.464-1.239 0.709-2.56 0.709-3.822v-0.060c0-0.203 0.092-0.393 0.252-0.523 0.607-0.493 1.135-1.072 1.57-1.723 0.115-0.172-0.066-0.387-0.255-0.303v0z"></path>
<path d="M24.867 10.154c-0.407 0.181-0.829 0.323-1.263 0.426 0.478-0.454 0.837-1.022 1.040-1.655 0.058-0.181-0.139-0.337-0.302-0.241-0.603 0.358-1.253 0.626-1.931 0.798-0.039 0.010-0.080 0.015-0.121 0.015-0.124 0-0.244-0.046-0.338-0.129-0.721-0.636-1.649-0.986-2.613-0.986-0.417 0-0.838 0.065-1.251 0.193-0.895 0.278-1.646 0.878-2.124 1.659v12.842c0.389-0.127 0.768-0.275 1.137-0.446 1.297-0.601 2.442-1.459 3.405-2.552 0.897-1.018 1.599-2.193 2.085-3.492 0.464-1.239 0.709-2.56 0.709-3.822v-0.060c0-0.203 0.092-0.393 0.252-0.523 0.607-0.493 1.135-1.072 1.57-1.723 0.115-0.172-0.066-0.387-0.255-0.303z"></path>
</symbol>
<symbol id="icon-facebook" viewBox="0 0 32 32">
<path fill="#3b5998" style="fill: var(--color8, #3b5998)" d="M32 16c0 8.837-7.163 16-16 16s-16-7.163-16-16c0-8.837 7.163-16 16-16s16 7.163 16 16z"></path>
<path d="M20.022 16.626h-2.855v10.459h-4.326v-10.459h-2.057v-3.676h2.057v-2.379c0-1.701 0.808-4.365 4.364-4.365l3.204 0.013v3.568h-2.325c-0.381 0-0.918 0.191-0.918 1.002v2.163h3.233l-0.378 3.672z"></path>
</symbol>
</defs>
</svg>
